<svg width="32" height="32" viewBox="0 0 32 32" xmlns="http://www.w3.org/2000/svg">
  <defs>
    <linearGradient id="circuitGrad" x1="0%" y1="0%" x2="100%" y2="100%">
      <stop offset="0%" style="stop-color:#00FFA3;stop-opacity:1" />
      <stop offset="50%" style="stop-color:#00D9FF;stop-opacity:1" />
      <stop offset="100%" style="stop-color:#DC1FFF;stop-opacity:1" />
    </linearGradient>
    <filter id="circuitGlow">
      <feGaussianBlur stdDeviation="1" result="blur"/>
      <feMerge>
        <feMergeNode in="blur"/>
        <feMergeNode in="SourceGraphic"/>
      </feMerge>
    </filter>
  </defs>
  
  <!-- Dark background -->
  <rect width="32" height="32" fill="#0D1117" rx="6"/>
  
  <!-- Shield outline -->
  <path d="M16 4 L8 8 L8 16 C8 21 12 25 16 27 C20 25 24 21 24 16 L24 8 Z" 
        fill="none" 
        stroke="url(#circuitGrad)" 
        stroke-width="2" 
        filter="url(#circuitGlow)"/>
  
  <!-- Inner shield fill -->
  <path d="M16 6 L10 9 L10 15.5 C10 19.5 13 23 16 24.5 C19 23 22 19.5 22 15.5 L22 9 Z" 
        fill="url(#circuitGrad)" 
        fill-opacity="0.15"/>
  
  <!-- Circuit board pattern inside shield -->
  <!-- Horizontal lines -->
  <line x1="12" y1="12" x2="15" y2="12" stroke="#00FFA3" stroke-width="1" opacity="0.8"/>
  <line x1="17" y1="12" x2="20" y2="12" stroke="#00FFA3" stroke-width="1" opacity="0.8"/>
  <line x1="11" y1="16" x2="14" y2="16" stroke="#00D9FF" stroke-width="1" opacity="0.8"/>
  <line x1="18" y1="16" x2="21" y2="16" stroke="#00D9FF" stroke-width="1" opacity="0.8"/>
  <line x1="12" y1="20" x2="15" y2="20" stroke="#DC1FFF" stroke-width="1" opacity="0.8"/>
  <line x1="17" y1="20" x2="20" y2="20" stroke="#DC1FFF" stroke-width="1" opacity="0.8"/>
  
  <!-- Vertical lines -->
  <line x1="16" y1="10" x2="16" y2="14" stroke="#00FFA3" stroke-width="1" opacity="0.8"/>
  <line x1="16" y1="18" x2="16" y2="22" stroke="#DC1FFF" stroke-width="1" opacity="0.8"/>
  
  <!-- Circuit nodes -->
  <circle cx="15" cy="12" r="1.2" fill="#00FFA3" filter="url(#circuitGlow)"/>
  <circle cx="17" cy="12" r="1.2" fill="#00FFA3" filter="url(#circuitGlow)"/>
  <circle cx="16" cy="16" r="1.5" fill="#00D9FF" filter="url(#circuitGlow)"/>
  <circle cx="15" cy="20" r="1.2" fill="#DC1FFF" filter="url(#circuitGlow)"/>
  <circle cx="17" cy="20" r="1.2" fill="#DC1FFF" filter="url(#circuitGlow)"/>
  
  <!-- Corner tech brackets -->
  <polyline points="2,6 2,2 6,2" fill="none" stroke="#00FFA3" stroke-width="1.5" stroke-linecap="round"/>
  <polyline points="26,2 30,2 30,6" fill="none" stroke="#00D9FF" stroke-width="1.5" stroke-linecap="round"/>
  <polyline points="30,26 30,30 26,30" fill="none" stroke="#DC1FFF" stroke-width="1.5" stroke-linecap="round"/>
  <polyline points="6,30 2,30 2,26" fill="none" stroke="#00FFA3" stroke-width="1.5" stroke-linecap="round"/>
</svg>
