<svg width="32" height="32" viewBox="0 0 32 32" xmlns="http://www.w3.org/2000/svg">
  <defs>
    <linearGradient id="hexGrad" x1="0%" y1="0%" x2="100%" y2="100%">
      <stop offset="0%" style="stop-color:#00D9FF;stop-opacity:1" />
      <stop offset="100%" style="stop-color:#7B2FFF;stop-opacity:1" />
    </linearGradient>
    <filter id="neonGlow">
      <feGaussianBlur stdDeviation="1.5" result="coloredBlur"/>
      <feMerge>
        <feMergeNode in="coloredBlur"/>
        <feMergeNode in="SourceGraphic"/>
      </feMerge>
    </filter>
  </defs>
  
  <!-- Dark background -->
  <rect width="32" height="32" fill="#0A0E1A" rx="6"/>
  
  <!-- Outer hexagon -->
  <path d="M16 3 L25 8 L25 18 L16 23 L7 18 L7 8 Z" 
        fill="none" 
        stroke="url(#hexGrad)" 
        stroke-width="2" 
        filter="url(#neonGlow)"/>
  
  <!-- Inner hexagon -->
  <path d="M16 7 L22 10.5 L22 16.5 L16 20 L10 16.5 L10 10.5 Z" 
        fill="url(#hexGrad)" 
        fill-opacity="0.2"
        stroke="url(#hexGrad)" 
        stroke-width="1.5"/>
  
  <!-- Lock symbol -->
  <rect x="14.5" y="13" width="3" height="4" fill="#00D9FF" rx="0.5"/>
  <path d="M13 13 L13 11.5 C13 10 14.3 9 16 9 C17.7 9 19 10 19 11.5 L19 13" 
        fill="none" 
        stroke="#00D9FF" 
        stroke-width="1.5" 
        stroke-linecap="round"/>
  
  <!-- Corner accents -->
  <line x1="2" y1="2" x2="5" y2="2" stroke="#00D9FF" stroke-width="1.5" stroke-linecap="round"/>
  <line x1="2" y1="2" x2="2" y2="5" stroke="#00D9FF" stroke-width="1.5" stroke-linecap="round"/>
  
  <line x1="30" y1="2" x2="27" y2="2" stroke="#7B2FFF" stroke-width="1.5" stroke-linecap="round"/>
  <line x1="30" y1="2" x2="30" y2="5" stroke="#7B2FFF" stroke-width="1.5" stroke-linecap="round"/>
  
  <line x1="2" y1="30" x2="5" y2="30" stroke="#7B2FFF" stroke-width="1.5" stroke-linecap="round"/>
  <line x1="2" y1="30" x2="2" y2="27" stroke="#7B2FFF" stroke-width="1.5" stroke-linecap="round"/>
  
  <line x1="30" y1="30" x2="27" y2="30" stroke="#00D9FF" stroke-width="1.5" stroke-linecap="round"/>
  <line x1="30" y1="30" x2="30" y2="27" stroke="#00D9FF" stroke-width="1.5" stroke-linecap="round"/>
</svg>
